<svg width="40" height="39" viewBox="0 0 40 39" fill="none" xmlns="http://www.w3.org/2000/svg">
<path d="M26.7887 18.0305H15.6485L19.5121 14.1024C20.0917 13.5229 20.0917 12.6214 19.5121 12.0418C18.9326 11.4623 18.0311 11.4623 17.4515 12.0418L11.2052 18.4169C10.6257 18.9964 10.6257 19.898 11.2052 20.4775L17.4515 26.8526C17.7091 27.1102 18.0955 27.3034 18.4818 27.3034C18.8682 27.3034 19.1902 27.1746 19.5121 26.917C20.0917 26.3374 20.0917 25.4359 19.5121 24.8564L15.6485 20.9283H26.7887C27.5615 20.9283 28.2054 20.2843 28.2054 19.5116C28.2698 18.6745 27.6259 18.0305 26.7887 18.0305Z" fill="black"/>
<path d="M19.5116 0C8.75768 0 0 8.69328 0 19.4472C0 30.2011 8.75768 38.8944 19.5116 38.8944C30.2655 38.8944 39.0232 30.2011 39.0232 19.4472C39.0232 8.69328 30.2655 0 19.5116 0ZM19.5116 36.061C10.3675 36.061 2.89776 28.5912 2.89776 19.4472C2.89776 10.3032 10.3675 2.83337 19.5116 2.83337C28.6556 2.83337 36.1254 10.3032 36.1254 19.4472C36.1254 28.5912 28.6556 36.061 19.5116 36.061Z" fill="black"/>
</svg>
