<svg width="22" height="20" viewBox="0 0 22 20" fill="none" xmlns="http://www.w3.org/2000/svg">
<path d="M21.697 18.556L15.6978 13.7184C18.1702 10.361 17.9157 5.55957 14.8252 2.52708C13.1891 0.902527 11.0076 0 8.68062 0C6.35367 0 4.17215 0.902527 2.53601 2.52708C-0.845338 5.88448 -0.845338 11.3718 2.53601 14.7292C4.17215 16.3538 6.35367 17.2563 8.68062 17.2563C10.8985 17.2563 12.9709 16.426 14.6071 14.9458L20.679 19.8195C20.8244 19.9278 21.0062 20 21.188 20C21.4425 20 21.6607 19.8917 21.8061 19.7112C22.097 19.3502 22.0606 18.8448 21.697 18.556ZM8.68062 15.6318C6.78997 15.6318 5.04476 14.9097 3.69949 13.574C0.936235 10.8303 0.936235 6.38989 3.69949 3.68231C5.04476 2.34657 6.78997 1.62455 8.68062 1.62455C10.5713 1.62455 12.3165 2.34657 13.6618 3.68231C16.425 6.42599 16.425 10.8664 13.6618 13.574C12.3528 14.9097 10.5713 15.6318 8.68062 15.6318Z" fill="black"/>
</svg>
